<mxfile host="app.diagrams.net" modified="2024-04-01T02:51:32.175Z" agent="Mozilla/5.0 (Windows NT 10.0; Win64; x64) AppleWebKit/537.36 (KHTML, like Gecko) Chrome/123.0.0.0 Safari/537.36 Edg/123.0.0.0" version="24.0.7" etag="FsbTbKKCZI2iE44JUdq3" type="github">
  <diagram name="第 1 页" id="GEegX3ckCuPe0LucDIaF">
    <mxGraphModel>
      <root>
        <mxCell id="0" />
        <mxCell id="1" parent="0" />
      </root>
    </mxGraphModel>
  </diagram>
</mxfile>
